<svg width="18" height="21" viewBox="0 0 18 21" fill="none" xmlns="http://www.w3.org/2000/svg">
<path d="M8.99984 0.900024C7.09028 0.900024 5.25893 1.65859 3.90867 3.00886C2.55841 4.35912 1.79984 6.19047 1.79984 8.10002V12.4032L0.951442 13.2516C0.783671 13.4194 0.669423 13.6332 0.623142 13.866C0.576861 14.0987 0.600624 14.34 0.691428 14.5592C0.782232 14.7785 0.936 14.9658 1.13329 15.0977C1.33058 15.2296 1.56254 15.3 1.79984 15.3H16.1998C16.4371 15.3 16.6691 15.2296 16.8664 15.0977C17.0637 14.9658 17.2175 14.7785 17.3083 14.5592C17.3991 14.34 17.4228 14.0987 17.3765 13.866C17.3303 13.6332 17.216 13.4194 17.0482 13.2516L16.1998 12.4032V8.10002C16.1998 6.19047 15.4413 4.35912 14.091 3.00886C12.7407 1.65859 10.9094 0.900024 8.99984 0.900024ZM8.99984 20.1C8.04506 20.1 7.12939 19.7207 6.45426 19.0456C5.77913 18.3705 5.39984 17.4548 5.39984 16.5H12.5998C12.5998 17.4548 12.2206 18.3705 11.5454 19.0456C10.8703 19.7207 9.95462 20.1 8.99984 20.1Z" fill="#111827"/>
</svg>

