<svg width="12" height="14" viewBox="0 0 12 14" fill="none" xmlns="http://www.w3.org/2000/svg">
<path d="M4.6665 6.33333V10.3333M7.33317 6.33333V10.3333M0.666504 3.66667H11.3332M10.6665 3.66667L10.0885 11.7613C10.0646 12.0977 9.91403 12.4125 9.66725 12.6424C9.42046 12.8722 9.09574 13 8.7585 13H3.24117C2.90393 13 2.57922 12.8722 2.33243 12.6424C2.08564 12.4125 1.93511 12.0977 1.91117 11.7613L1.33317 3.66667H10.6665ZM7.99984 3.66667V1.66667C7.99984 1.48986 7.9296 1.32029 7.80457 1.19526C7.67955 1.07024 7.50998 1 7.33317 1H4.6665C4.48969 1 4.32012 1.07024 4.1951 1.19526C4.07008 1.32029 3.99984 1.48986 3.99984 1.66667V3.66667H7.99984Z" stroke="#9CA3AF" stroke-linecap="round" stroke-linejoin="round"/>
</svg>
