<svg width="44" height="44" viewBox="0 0 44 44" fill="none" xmlns="http://www.w3.org/2000/svg">
<g filter="url(#filter0_d_849_93857)">
<rect x="2" y="1" width="40" height="40" rx="6" fill="#111827"/>
<path d="M27 26H29C29.5304 26 30.0391 25.7893 30.4142 25.4142C30.7893 25.0391 31 24.5304 31 24V20C31 19.4696 30.7893 18.9609 30.4142 18.5858C30.0391 18.2107 29.5304 18 29 18H15C14.4696 18 13.9609 18.2107 13.5858 18.5858C13.2107 18.9609 13 19.4696 13 20V24C13 24.5304 13.2107 25.0391 13.5858 25.4142C13.9609 25.7893 14.4696 26 15 26H17M19 30H25C25.5304 30 26.0391 29.7893 26.4142 29.4142C26.7893 29.0391 27 28.5304 27 28V24C27 23.4696 26.7893 22.9609 26.4142 22.5858C26.0391 22.2107 25.5304 22 25 22H19C18.4696 22 17.9609 22.2107 17.5858 22.5858C17.2107 22.9609 17 23.4696 17 24V28C17 28.5304 17.2107 29.0391 17.5858 29.4142C17.9609 29.7893 18.4696 30 19 30ZM27 18V14C27 13.4696 26.7893 12.9609 26.4142 12.5858C26.0391 12.2107 25.5304 12 25 12H19C18.4696 12 17.9609 12.2107 17.5858 12.5858C17.2107 12.9609 17 13.4696 17 14V18H27Z" stroke="white" stroke-width="2" stroke-linecap="round" stroke-linejoin="round"/>
<rect x="2.5" y="1.5" width="39" height="39" rx="5.5" stroke="#333333"/>
</g>
<defs>
<filter id="filter0_d_849_93857" x="0" y="0" width="44" height="44" filterUnits="userSpaceOnUse" color-interpolation-filters="sRGB">
<feFlood flood-opacity="0" result="BackgroundImageFix"/>
<feColorMatrix in="SourceAlpha" type="matrix" values="0 0 0 0 0 0 0 0 0 0 0 0 0 0 0 0 0 0 127 0" result="hardAlpha"/>
<feOffset dy="1"/>
<feGaussianBlur stdDeviation="1"/>
<feColorMatrix type="matrix" values="0 0 0 0 0 0 0 0 0 0 0 0 0 0 0 0 0 0 0.05 0"/>
<feBlend mode="normal" in2="BackgroundImageFix" result="effect1_dropShadow_849_93857"/>
<feBlend mode="normal" in="SourceGraphic" in2="effect1_dropShadow_849_93857" result="shape"/>
</filter>
</defs>
</svg>
